<svg xmlns="http://www.w3.org/2000/svg" xmlns:xlink="http://www.w3.org/1999/xlink" style="position:absolute"><symbol id="avatar" viewBox="0 0 482.9 482.9"><path d="M239.7 260.2h3.2c29.3-.5 53-10.8 70.5-30.5 38.5-43.4 32.1-117.8 31.4-124.9-2.5-53.3-27.7-78.8-48.5-90.7C280.8 5.2 262.7.4 242.5 0H240.8c-11.1 0-32.9 1.8-53.8 13.7-21 11.9-46.6 37.4-49.1 91.1-.7 7.1-7.1 81.5 31.4 124.9 17.4 19.7 41.1 30 70.4 30.5zm-75.1-152.9c0-.3.1-.6.1-.8 3.3-71.7 54.2-79.4 76-79.4H241.9c27 .6 72.9 11.6 76 79.4 0 .3 0 .6.1.8.1.7 7.1 68.7-24.7 104.5-12.6 14.2-29.4 21.2-51.5 21.4h-1c-22-.2-38.9-7.2-51.4-21.4-31.7-35.6-24.9-103.9-24.8-104.5z"></path><path d="M446.8 383.6v-.3c0-.8-.1-1.6-.1-2.5-.6-19.8-1.9-66.1-45.3-80.9-.3-.1-.7-.2-1-.3-45.1-11.5-82.6-37.5-83-37.8-6.1-4.3-14.5-2.8-18.8 3.3-4.3 6.1-2.8 14.5 3.3 18.8 1.7 1.2 41.5 28.9 91.3 41.7 23.3 8.3 25.9 33.2 26.6 56 0 .9 0 1.7.1 2.5.1 9-.5 22.9-2.1 30.9-16.2 9.2-79.7 41-176.3 41-96.2 0-160.1-31.9-176.4-41.1-1.6-8-2.3-21.9-2.1-30.9 0-.8.1-1.6.1-2.5.7-22.8 3.3-47.7 26.6-56 49.8-12.8 89.6-40.6 91.3-41.7 6.1-4.3 7.6-12.7 3.3-18.8-4.3-6.1-12.7-7.6-18.8-3.3-.4.3-37.7 26.3-83 37.8-.4.1-.7.2-1 .3-43.4 14.9-44.7 61.2-45.3 80.9 0 .9 0 1.7-.1 2.5v.3c-.1 5.2-.2 31.9 5.1 45.3 1 2.6 2.8 4.8 5.2 6.3 3 2 74.9 47.8 195.2 47.8s192.2-45.9 195.2-47.8c2.3-1.5 4.2-3.7 5.2-6.3 5-13.3 4.9-40 4.8-45.2z"></path></symbol><symbol id="check" viewBox="0 0 405.272 405.272"><path d="M393.401 124.425L179.603 338.208c-15.832 15.835-41.514 15.835-57.361 0L11.878 227.836c-15.838-15.835-15.838-41.52 0-57.358 15.841-15.841 41.521-15.841 57.355-.006l81.698 81.699L336.037 67.064c15.841-15.841 41.523-15.829 57.358 0 15.835 15.838 15.835 41.514.006 57.361z" fill="#c82254"></path></symbol><symbol id="checked" viewBox="0 0 26 26"><path d="M.3 14c-.2-.2-.3-.5-.3-.7s.1-.5.3-.7l1.4-1.4c.4-.4 1-.4 1.4 0l.1.1 5.5 5.9c.2.2.5.2.7 0L22.8 3.3h.1c.4-.4 1-.4 1.4 0l1.4 1.4c.4.4.4 1 0 1.4l-16 16.6c-.2.2-.4.3-.7.3-.3 0-.5-.1-.7-.3L.5 14.3.3 14z"></path></symbol><symbol id="delivery-truck" viewBox="0 0 493.349 493.349"><path d="M487.932 51.1c-3.613-3.612-7.905-5.424-12.847-5.424h-292.36c-4.948 0-9.233 1.812-12.847 5.424-3.615 3.617-5.424 7.902-5.424 12.85v54.818h-45.683c-5.14 0-10.71 1.237-16.705 3.711-5.996 2.478-10.801 5.518-14.416 9.135l-56.532 56.531c-2.473 2.474-4.612 5.327-6.424 8.565-1.807 3.23-3.14 6.14-3.997 8.705-.855 2.572-1.477 6.089-1.854 10.566-.378 4.475-.62 7.758-.715 9.853-.091 2.092-.091 5.71 0 10.85.096 5.142.144 8.47.144 9.995v91.36c-4.947 0-9.229 1.807-12.847 5.428C1.809 347.076 0 351.363 0 356.312c0 2.851.378 5.376 1.14 7.562.763 2.19 2.046 3.949 3.858 5.284a92.406 92.406 0 0 0 4.709 3.285c1.335.855 3.571 1.424 6.711 1.711s5.28.479 6.423.575c1.143.089 3.568.089 7.279 0 3.715-.096 5.855-.144 6.427-.144h18.271c0 20.17 7.139 37.397 21.411 51.674 14.277 14.274 31.501 21.413 51.678 21.413 20.175 0 37.401-7.139 51.675-21.413 14.277-14.276 21.411-31.504 21.411-51.674H310.63c0 20.17 7.139 37.397 21.412 51.674 14.271 14.274 31.498 21.413 51.675 21.413 20.181 0 37.397-7.139 51.675-21.413 14.277-14.276 21.412-31.504 21.412-51.674.568 0 2.711.048 6.42.144 3.713.089 6.14.089 7.282 0 1.144-.096 3.289-.288 6.427-.575 3.139-.287 5.373-.855 6.708-1.711s2.901-1.95 4.709-3.285c1.81-1.335 3.097-3.094 3.856-5.284.77-2.187 1.143-4.712 1.143-7.562V63.953c.004-4.949-1.803-9.229-5.417-12.853zM153.597 400.28c-7.229 7.23-15.797 10.854-25.694 10.854-9.898 0-18.464-3.62-25.697-10.854-7.233-7.228-10.848-15.797-10.848-25.693 0-9.897 3.619-18.47 10.848-25.701 7.232-7.228 15.798-10.848 25.697-10.848 9.897 0 18.464 3.617 25.694 10.848 7.236 7.231 10.853 15.804 10.853 25.701 0 9.896-3.617 18.465-10.853 25.693zm10.853-171.877H54.814v-8.562c0-2.475.855-4.569 2.568-6.283l55.674-55.672c1.712-1.714 3.809-2.568 6.283-2.568h45.111v73.085zM409.41 400.28c-7.23 7.23-15.797 10.854-25.693 10.854-9.9 0-18.47-3.62-25.7-10.854-7.231-7.228-10.849-15.797-10.849-25.693 0-9.897 3.617-18.47 10.849-25.701 7.23-7.228 15.8-10.848 25.7-10.848 9.896 0 18.463 3.617 25.693 10.848 7.231 7.235 10.852 15.804 10.852 25.701 0 9.896-3.614 18.465-10.852 25.693z"></path></symbol><symbol id="envelope" viewBox="0 0 483.3 483.3"><path d="M424.3 57.75H59.1c-32.6 0-59.1 26.5-59.1 59.1v249.6c0 32.6 26.5 59.1 59.1 59.1h365.1c32.6 0 59.1-26.5 59.1-59.1v-249.5c.1-32.6-26.4-59.2-59-59.2zm32.1 308.7c0 17.7-14.4 32.1-32.1 32.1H59.1c-17.7 0-32.1-14.4-32.1-32.1v-249.5c0-17.7 14.4-32.1 32.1-32.1h365.1c17.7 0 32.1 14.4 32.1 32.1v249.5h.1z"></path><path d="M304.8 238.55l118.2-106c5.5-5 6-13.5 1-19.1-5-5.5-13.5-6-19.1-1l-163 146.3-31.8-28.4c-.1-.1-.2-.2-.2-.3-.7-.7-1.4-1.3-2.2-1.9L78.3 112.35c-5.6-5-14.1-4.5-19.1 1.1-5 5.6-4.5 14.1 1.1 19.1l119.6 106.9-119.1 111.5c-5.4 5.1-5.7 13.6-.6 19.1 2.7 2.8 6.3 4.3 9.9 4.3 3.3 0 6.6-1.2 9.2-3.6l120.9-113.1 32.8 29.3c2.6 2.3 5.8 3.4 9 3.4s6.5-1.2 9-3.5l33.7-30.2 120.2 114.2c2.6 2.5 6 3.7 9.3 3.7 3.6 0 7.1-1.4 9.8-4.2 5.1-5.4 4.9-14-.5-19.1l-118.7-112.7z"></path></symbol><symbol id="grids" viewBox="0 0 298 298"><path d="M117.5 0h-101C7.678 0 .5 7.178.5 16v101c0 8.822 7.178 16 16 16h101c8.822 0 16-7.178 16-16V16c0-8.822-7.178-16-16-16zM281.5 0h-101c-8.822 0-16 7.178-16 16v101c0 8.822 7.178 16 16 16h101c8.822 0 16-7.178 16-16V16c0-8.822-7.178-16-16-16zM117.5 165h-101c-8.822 0-16 7.178-16 16v101c0 8.822 7.178 16 16 16h101c8.822 0 16-7.178 16-16V181c0-8.822-7.178-16-16-16zM281.5 165h-101c-8.822 0-16 7.178-16 16v101c0 8.822 7.178 16 16 16h101c8.822 0 16-7.178 16-16V181c0-8.822-7.178-16-16-16z"></path></symbol><symbol id="heart" viewBox="0 0 60 60"><path d="M42.5,22h-25c-0.552,0-1,0.447-1,1s0.448,1,1,1h25c0.552,0,1-0.447,1-1S43.052,22,42.5,22z"></path><path d="M17.5,16h10c0.552,0,1-0.447,1-1s-0.448-1-1-1h-10c-0.552,0-1,0.447-1,1S16.948,16,17.5,16z"></path><path d="M42.5,30h-25c-0.552,0-1,0.447-1,1s0.448,1,1,1h25c0.552,0,1-0.447,1-1S43.052,30,42.5,30z"></path><path d="M42.5,38h-25c-0.552,0-1,0.447-1,1s0.448,1,1,1h25c0.552,0,1-0.447,1-1S43.052,38,42.5,38z"></path><path d="M42.5,46h-25c-0.552,0-1,0.447-1,1s0.448,1,1,1h25c0.552,0,1-0.447,1-1S43.052,46,42.5,46z"></path><path d="M38.914,0H6.5v60h47V14.586L38.914,0z M39.5,3.414L50.086,14H39.5V3.414z M8.5,58V2h29v14h14v42H8.5z"></path></symbol><symbol id="group" viewBox="0 0 423.803 423.803"><path d="M422.951 368.901l-16.8-58.4c-.4-1.2-1.2-2.4-2-3.2-10.4-31.6-36-56-68.4-64.4l-4.8-.8c-7.2-2-15.2.4-20.4 6.4-17.6 20-40 21.6-63.6 21.6s-46-1.6-63.6-21.6c-5.2-6-13.2-8.4-20.4-6.4l-4.8 1.2c-24.4 6.4-45.2 22-58.4 42.8h-50.4c-.4 0-.4 0-.8-.4 0-.4-.4-.8-.4-1.6l10.4-37.2c9.2-29.2 26.8-38 61.2-46.8 1.6-.4 2.8-1.2 3.6-2 2.8 2.4 6 4.4 9.2 6 1.2.8 2.4.8 3.6.8 2.8 0 5.6-1.6 7.2-4.4 2-4 .4-8.8-3.6-10.8-18.4-9.6-31.6-36.8-31.6-64.8 0-24.8 20.4-45.2 45.2-45.2 4.8 0 9.2.8 13.6 2-4.4 10.8-6.8 22.4-6.8 34.8 0 68.4 41.2 126 90 126 48 0 90.4-58.8 90.4-126 0-50-40.4-90.4-90.4-90.4-31.6 0-59.6 16.4-75.6 41.2-6.8-2.4-14-3.6-21.2-3.6-21.6 0-40.8 11.6-51.6 28.8-.8-.8-1.6-1.2-2.4-1.6-6-3.2-12-4.4-18.8-4.4-22.4-.4-40.4 17.6-40.4 40 0 12.8 3.6 24.8 9.2 34.4-18.4 4.8-34.8 12-42.4 36.4l-6.4 23.2c-1.2 4-.4 8.4 2 11.6 2.4 3.6 6.8 5.6 11.2 5.6h30.8c-.4 1.6-1.2 3.2-1.6 4.8l-10.4 37.6c-1.6 5.2-.4 10.8 3.2 15.2 3.2 4.4 8 6.8 13.6 6.8h42.4c-1.2 2.8-2 5.6-2.8 8.4l-16.8 58.8c-1.6 6.8-.4 14 4 19.6 4.4 5.6 10.8 8.8 17.6 8.8h307.6c6.8 0 13.6-3.2 17.6-8.8 4.4-5.6 6-12.8 4-20zm-238.8-286c.4-.4.8-.8 1.2-1.6.4-.4.4-1.2.8-1.6 12.4-22.4 36.4-37.6 64-37.6 33.2 0 61.2 22 70.8 52-14 2.8-28.8-2.8-37.6-14.8-2.8-3.6-7.6-4.4-11.2-1.6-1.6 1.2-2.4 2.4-2.8 4-.4.4-.4.8-.8 1.2-11.2 22.8-48.8 32.4-91.6 24 1.2-8.4 3.6-16.4 7.2-24zm22.4 42.8c32 0 58.4-10 72-28.8 10 8.8 22.4 13.6 35.6 13.6 3.2 0 6.8-.4 10-1.2.4 2.4.4 4.4.4 6.8 0 58.8-34.8 110.4-74.4 110.4-38 0-71.2-47.6-74-103.6 10.4 2 20.8 2.8 30.4 2.8zm-189.6 96l5.6-20c4.8-16.4 14.8-21.2 34.8-26 1.2-.4 2.4-.8 3.2-1.6 2 1.6 3.6 2.8 6 4 1.2.8 2.4.8 3.6.8 2.8 0 5.6-1.6 7.2-4.4 2-4 .4-8.8-3.2-10.8-10.4-5.6-18-21.2-18-37.2 0-13.6 10.8-24.4 24.4-24.4 4.4 0 8 .8 11.6 2.8 1.2.4 2 .8 3.2.8-2 6-3.2 12.4-3.2 19.2 0 22.8 7.6 45.2 19.6 60.8-24 6-45.2 14-59.2 36h-35.6zm389.6 157.6c-.8.8-2.4 2.4-5.2 2.4h-307.6c-2.8 0-4.4-1.6-5.2-2.4-1.2-1.6-1.6-4-1.2-5.6l16.8-58.4c8-27.6 30-49.2 58-56.4l4.8-1.2c1.2-.4 3.2.4 4.4 1.6 22 25.2 49.2 27.2 75.6 27.2 26.4 0 53.6-2 75.6-27.2 1.2-1.2 2.8-2 4.8-1.6l4.8 1.2c27.6 7.2 50 28.8 58 56.4l7.2 24.8c.4 1.2.8 2 1.6 2.8l8.8 30.4c.4 2 0 4.4-1.2 6z"></path></symbol><symbol id="list" viewBox="0 0 60 60"><path d="M38.914 0H6.5v60h47V14.586L38.914 0zm.586 3.414L50.086 14H39.5V3.414zM8.5 58V2h29v14h14v42h-43z"></path><path d="M42.5 21h-16a1 1 0 1 0 0 2h16a1 1 0 1 0 0-2zM22.875 18.219l-4.301 3.441-1.367-1.367a.999.999 0 1 0-1.414 1.414l2 2a.998.998 0 0 0 1.331.074l5-4a1 1 0 0 0-1.249-1.562zM42.5 32h-16a1 1 0 1 0 0 2h16a1 1 0 1 0 0-2zM22.875 29.219l-4.301 3.441-1.367-1.367a.999.999 0 1 0-1.414 1.414l2 2a.998.998 0 0 0 1.331.074l5-4a1 1 0 0 0-1.249-1.562zM42.5 43h-16a1 1 0 1 0 0 2h16a1 1 0 1 0 0-2zM22.875 40.219l-4.301 3.441-1.367-1.367a.999.999 0 1 0-1.414 1.414l2 2a.998.998 0 0 0 1.331.074l5-4a1 1 0 0 0-1.249-1.562z"></path></symbol><symbol id="list-view" viewBox="0 0 24 24"><path d="M3 2H1c-.6 0-1 .4-1 1v2c0 .6.4 1 1 1h2c.6 0 1-.4 1-1V3c0-.6-.4-1-1-1zM3 10H1c-.6 0-1 .4-1 1v2c0 .6.4 1 1 1h2c.6 0 1-.4 1-1v-2c0-.6-.4-1-1-1zM3 18H1c-.6 0-1 .4-1 1v2c0 .6.4 1 1 1h2c.6 0 1-.4 1-1v-2c0-.6-.4-1-1-1zM23 2H9c-.6 0-1 .4-1 1v2c0 .6.4 1 1 1h14c.6 0 1-.4 1-1V3c0-.6-.4-1-1-1zM23 10H9c-.6 0-1 .4-1 1v2c0 .6.4 1 1 1h14c.6 0 1-.4 1-1v-2c0-.6-.4-1-1-1zM23 18H9c-.6 0-1 .4-1 1v2c0 .6.4 1 1 1h14c.6 0 1-.4 1-1v-2c0-.6-.4-1-1-1z"></path></symbol><symbol id="magnifying-glass" viewBox="0 0 485.213 485.213"><g fill="#918f8b"><path d="M363.909 181.955C363.909 81.473 282.44 0 181.956 0 81.474 0 .001 81.473.001 181.955s81.473 181.951 181.955 181.951c100.484 0 181.953-81.469 181.953-181.951zM181.956 318.416c-75.252 0-136.465-61.208-136.465-136.46 0-75.252 61.213-136.465 136.465-136.465 75.25 0 136.468 61.213 136.468 136.465 0 75.252-61.218 136.46-136.468 136.46zM471.882 407.567L360.567 296.243a214.267 214.267 0 0 1-64.331 64.321L407.56 471.888c17.772 17.768 46.587 17.768 64.321 0 17.773-17.739 17.773-46.554.001-64.321z"></path></g></symbol><symbol id="menu" viewBox="0 0 24 24"><path d="M24 3c0-.6-.4-1-1-1H1c-.6 0-1 .4-1 1v2c0 .6.4 1 1 1h22c.6 0 1-.4 1-1V3zM24 11c0-.6-.4-1-1-1H1c-.6 0-1 .4-1 1v2c0 .6.4 1 1 1h22c.6 0 1-.4 1-1v-2zM24 19c0-.6-.4-1-1-1H1c-.6 0-1 .4-1 1v2c0 .6.4 1 1 1h22c.6 0 1-.4 1-1v-2z"></path></symbol><symbol id="move-to-next" viewBox="0 0 46.02 46.02"><path d="M14.757 46.02a5.688 5.688 0 0 1-3.929-1.569 5.705 5.705 0 0 1-.204-8.063L23.382 22.97 10.637 9.645a5.703 5.703 0 0 1 8.242-7.884l16.505 17.253a5.707 5.707 0 0 1 .013 7.872L18.893 44.247a5.699 5.699 0 0 1-4.136 1.773z" fill="#969696"></path></symbol><symbol id="padlock" viewBox="0 0 401.998 401.998"><path d="M357.45 190.721c-5.331-5.33-11.8-7.993-19.417-7.993h-9.131v-54.821c0-35.022-12.559-65.093-37.685-90.218C266.093 12.563 236.025 0 200.998 0c-35.026 0-65.1 12.563-90.222 37.688-25.126 25.126-37.685 55.196-37.685 90.219v54.821h-9.135c-7.611 0-14.084 2.663-19.414 7.993-5.33 5.326-7.994 11.799-7.994 19.417V374.59c0 7.611 2.665 14.086 7.994 19.417 5.33 5.325 11.803 7.991 19.414 7.991H338.04c7.617 0 14.085-2.663 19.417-7.991 5.325-5.331 7.994-11.806 7.994-19.417V210.135c.004-7.612-2.669-14.084-8.001-19.414zm-83.363-7.993H127.909v-54.821c0-20.175 7.139-37.402 21.414-51.675 14.277-14.275 31.501-21.411 51.678-21.411 20.179 0 37.399 7.135 51.677 21.411 14.271 14.272 21.409 31.5 21.409 51.675v54.821z"></path></symbol><symbol id="pdf" viewBox="0 0 512 512"><path d="M494.479 138.557L364.04 3.018A9.853 9.853 0 0 0 356.945 0h-194.41c-21.757 0-39.458 17.694-39.458 39.442v137.789H44.29c-16.278 0-29.521 13.239-29.521 29.513v147.744C14.769 370.761 28.012 384 44.29 384h78.787v88.627c0 21.71 17.701 39.373 39.458 39.373h295.238c21.757 0 39.458-17.653 39.458-39.351V145.385a9.85 9.85 0 0 0-2.752-6.828zM359.385 26.581l107.079 111.265H359.385V26.581zM44.29 364.308c-5.42 0-9.828-4.405-9.828-9.82V206.744c0-5.415 4.409-9.821 9.828-9.821h265.882c5.42 0 9.828 4.406 9.828 9.821v147.744c0 5.415-4.409 9.82-9.828 9.82H44.29zm433.248 108.341c0 10.84-8.867 19.659-19.766 19.659H162.535c-10.899 0-19.766-8.828-19.766-19.68V384h167.403c16.278 0 29.521-13.239 29.521-29.512V206.744c0-16.274-13.243-29.513-29.521-29.513H142.769V39.442c0-10.891 8.867-19.75 19.766-19.75h177.157v128c0 5.438 4.409 9.846 9.846 9.846h128v315.111z"></path><path d="M132.481 249.894c-3.269-4.25-7.327-7.01-12.173-8.279-3.154-.846-9.923-1.269-20.308-1.269H72.596v84.577h17.077v-31.904h11.135c7.731 0 13.635-.404 17.712-1.212 3-.654 5.952-1.99 8.856-4.01 2.904-2.019 5.298-4.798 7.183-8.336 1.885-3.538 2.827-7.904 2.827-13.096-.001-6.731-1.636-12.221-4.905-16.471zm-14.625 23.279c-1.288 1.885-3.067 3.269-5.337 4.154s-6.769 1.327-13.5 1.327h-9.346v-24h8.25c6.154 0 10.25.192 12.288.577 2.769.5 5.058 1.75 6.865 3.75 1.808 2 2.712 4.539 2.712 7.615.001 2.5-.644 4.692-1.932 6.577zM219.481 263.452c-1.846-5.404-4.539-9.971-8.077-13.702s-7.789-6.327-12.75-7.789c-3.692-1.077-9.058-1.615-16.096-1.615h-31.212v84.577h32.135c6.308 0 11.346-.596 15.115-1.789 5.039-1.615 9.039-3.865 12-6.75 3.923-3.808 6.942-8.788 9.058-14.942 1.731-5.039 2.596-11.039 2.596-18 0-7.923-.923-14.586-2.769-19.99zm-16.616 34.731c-1.154 3.789-2.644 6.51-4.471 8.163-1.827 1.654-4.125 2.827-6.894 3.519-2.115.539-5.558.808-10.327.808h-12.75v-56.019h7.673c6.961 0 11.635.269 14.019.808 3.192.692 5.827 2.019 7.904 3.981 2.077 1.962 3.692 4.692 4.846 8.192s1.731 8.519 1.731 15.058c0 6.538-.577 11.701-1.731 15.49zM294.827 254.654v-14.308h-57.981v84.577h17.077v-35.942h35.308v-14.308h-35.308v-20.019z"></path></symbol><symbol id="phone-call" viewBox="0 0 463.009 463.009"><path d="M462.692 381.085c-1.472-11.126-7.895-20.719-17.62-26.318L330.846 289c-13.99-8.055-31.738-5.71-43.157 5.708l-22.499 22.499c-5.987 5.988-15.459 6.518-22.028 1.231-17.737-14.272-35.201-29.979-51.906-46.685-16.705-16.705-32.412-34.168-46.685-51.906-5.287-6.57-4.758-16.041 1.231-22.029l22.498-22.499c11.418-11.417 13.766-29.163 5.709-43.156L108.242 17.937C102.642 8.211 93.05 1.789 81.924.317c-11.127-1.475-22.06 2.236-29.996 10.172L18.027 44.391c-23.661 23.662-24.041 66.944-1.07 121.875 22.088 52.818 63.308 110.962 116.065 163.721 52.759 52.758 110.903 93.978 163.722 116.066 27.039 11.307 51.253 16.957 71.697 16.956 21.088 0 38.163-6.013 50.178-18.027l33.901-33.902c7.935-7.936 11.643-18.869 10.172-29.995zm-139.33-79.086l114.226 65.767c5.649 3.252 9.379 8.824 10.233 15.286.718 5.423-.691 10.763-3.885 15.066L292.131 311.48l6.165-6.165c6.631-6.631 16.941-7.994 25.066-3.316zM79.956 15.188c6.463.855 12.034 4.585 15.286 10.234l65.767 114.226c4.68 8.127 3.316 18.435-3.315 25.065l-5.663 5.663L64.917 19.073c3.561-2.637 7.82-4.069 12.26-4.069.921 0 1.85.061 2.779.184zm328.055 419.187c-18.798 18.798-57.244 18.01-105.48-2.162-51.06-21.352-107.491-61.424-158.901-112.833-51.41-51.41-91.482-107.842-112.834-158.901-20.173-48.237-20.96-86.683-2.162-105.482l25.167-25.168 87.245 151.532-5.851 5.851c-11.415 11.416-12.409 29.488-2.311 42.04 14.609 18.156 30.68 36.024 47.764 53.108 17.086 17.085 34.954 33.156 53.109 47.765 12.55 10.098 30.622 9.105 42.04-2.312l5.338-5.338 152.016 86.759-25.14 25.141z" fill="#D80027"></path></symbol><symbol id="phone-call2" viewBox="0 0 463.009 463.009"><path d="M462.692 381.085c-1.472-11.126-7.895-20.719-17.62-26.318L330.846 289c-13.99-8.055-31.738-5.71-43.157 5.708l-22.499 22.499c-5.987 5.988-15.459 6.518-22.028 1.231-17.737-14.272-35.201-29.979-51.906-46.685-16.705-16.705-32.412-34.168-46.685-51.906-5.287-6.57-4.758-16.041 1.231-22.029l22.498-22.499c11.418-11.417 13.766-29.163 5.709-43.156L108.242 17.937C102.642 8.211 93.05 1.789 81.924.317c-11.127-1.475-22.06 2.236-29.996 10.172L18.027 44.391c-23.661 23.662-24.041 66.944-1.07 121.875 22.088 52.818 63.308 110.962 116.065 163.721 52.759 52.758 110.903 93.978 163.722 116.066 27.039 11.307 51.253 16.957 71.697 16.956 21.088 0 38.163-6.013 50.178-18.027l33.901-33.902c7.935-7.936 11.643-18.869 10.172-29.995zm-139.33-79.086l114.226 65.767c5.649 3.252 9.379 8.824 10.233 15.286.718 5.423-.691 10.763-3.885 15.066L292.131 311.48l6.165-6.165c6.631-6.631 16.941-7.994 25.066-3.316zM79.956 15.188c6.463.855 12.034 4.585 15.286 10.234l65.767 114.226c4.68 8.127 3.316 18.435-3.315 25.065l-5.663 5.663L64.917 19.073c3.561-2.637 7.82-4.069 12.26-4.069.921 0 1.85.061 2.779.184zm328.055 419.187c-18.798 18.798-57.244 18.01-105.48-2.162-51.06-21.352-107.491-61.424-158.901-112.833-51.41-51.41-91.482-107.842-112.834-158.901-20.173-48.237-20.96-86.683-2.162-105.482l25.167-25.168 87.245 151.532-5.851 5.851c-11.415 11.416-12.409 29.488-2.311 42.04 14.609 18.156 30.68 36.024 47.764 53.108 17.086 17.085 34.954 33.156 53.109 47.765 12.55 10.098 30.622 9.105 42.04-2.312l5.338-5.338 152.016 86.759-25.14 25.141z"></path></symbol><symbol id="play-button" viewBox="0 0 41.999 41.999"><path d="M36.068 20.176l-29-20A1 1 0 1 0 5.5.999v40a1 1 0 0 0 1.568.823l29-20a.999.999 0 0 0 0-1.646z" fill="#ccc"></path></symbol><symbol id="reply" viewBox="0 0 384 384"><path d="M149.333 117.333V32L0 181.333l149.333 149.333V243.2C256 243.2 330.667 277.333 384 352c-21.333-106.667-85.333-213.333-234.667-234.667z"></path></symbol><symbol id="right-chevron" viewBox="0 0 238.003 238.003"><path d="M181.776 107.719L78.705 4.648c-6.198-6.198-16.273-6.198-22.47 0s-6.198 16.273 0 22.47l91.883 91.883-91.883 91.883c-6.198 6.198-6.198 16.273 0 22.47s16.273 6.198 22.47 0l103.071-103.039a15.741 15.741 0 0 0 4.64-11.283c0-4.13-1.526-8.199-4.64-11.313z" fill="#010002"></path></symbol><symbol id="shopping-bag" viewBox="0 0 489 489"><path d="M440.1 422.7l-28-315.3c-.6-7-6.5-12.3-13.4-12.3h-57.6C340.3 42.5 297.3 0 244.5 0s-95.8 42.5-96.6 95.1H90.3c-7 0-12.8 5.3-13.4 12.3l-28 315.3c0 .4-.1.8-.1 1.2 0 35.9 32.9 65.1 73.4 65.1h244.6c40.5 0 73.4-29.2 73.4-65.1 0-.4 0-.8-.1-1.2zM244.5 27c37.9 0 68.8 30.4 69.6 68.1H174.9c.8-37.7 31.7-68.1 69.6-68.1zm122.3 435H122.2c-25.4 0-46-16.8-46.4-37.5l26.8-302.3h45.2v41c0 7.5 6 13.5 13.5 13.5s13.5-6 13.5-13.5v-41h139.3v41c0 7.5 6 13.5 13.5 13.5s13.5-6 13.5-13.5v-41h45.2l26.9 302.3c-.4 20.7-21.1 37.5-46.4 37.5z"></path></symbol><symbol id="shopping-basket" viewBox="0 0 475.084 475.085"><g fill="#5cb85c"><path d="M365.446 401.998c0 10.092 3.579 18.702 10.711 25.834 7.132 7.139 15.749 10.711 25.845 10.711 10.081 0 18.698-3.572 25.83-10.711 7.139-7.132 10.711-15.742 10.711-25.834s-3.568-18.702-10.711-25.841c-7.132-7.132-15.749-10.704-25.83-10.704-10.096 0-18.713 3.572-25.845 10.704-7.132 7.139-10.711 15.749-10.711 25.841zM469.658 78.51c-3.618-3.617-7.898-5.426-12.848-5.426H113.918c-.193-1.331-.621-3.756-1.287-7.277-.666-3.523-1.188-6.329-1.569-8.425-.383-2.087-1.093-4.611-2.142-7.561-1.047-2.952-2.284-5.286-3.711-6.995-1.425-1.718-3.328-3.189-5.708-4.43-2.378-1.233-5.092-1.853-8.136-1.853H18.276c-4.952 0-9.234 1.812-12.85 5.424C1.809 45.583 0 49.868 0 54.816s1.809 9.231 5.426 12.847c3.619 3.617 7.902 5.424 12.85 5.424h58.237l50.532 234.976c-.378.76-2.329 4.373-5.852 10.848-3.521 6.475-6.328 12.135-8.42 16.988-2.093 4.859-3.14 8.616-3.14 11.279 0 4.948 1.809 9.232 5.424 12.854 3.621 3.606 7.902 5.421 12.851 5.421h292.348c4.948 0 9.232-1.814 12.847-5.421 3.62-3.621 5.427-7.905 5.427-12.854 0-4.949-1.807-9.233-5.427-12.847-3.614-3.614-7.898-5.428-12.847-5.428h-262.66c4.57-9.138 6.854-15.222 6.854-18.268 0-1.909-.238-4.004-.715-6.283s-1.047-4.805-1.713-7.569c-.667-2.752-1.093-4.799-1.283-6.133l298.077-34.831c4.753-.575 8.658-2.614 11.703-6.14 3.046-3.518 4.565-7.562 4.565-12.133V91.363c-.002-4.948-1.806-9.231-5.426-12.853zM109.632 401.998c0 10.092 3.567 18.702 10.706 25.834 7.141 7.139 15.75 10.711 25.841 10.711 10.085 0 18.699-3.572 25.835-10.711 7.139-7.132 10.71-15.742 10.71-25.834s-3.568-18.702-10.71-25.841c-7.137-7.132-15.75-10.704-25.835-10.704-10.09 0-18.704 3.572-25.841 10.704-7.135 7.139-10.706 15.749-10.706 25.841z"></path></g></symbol><symbol id="shopping-cart" viewBox="0 0 483.688 483.688"><path d="M473.6 92.43c-8.7-10.6-21.9-16.5-35.6-16.5H140.7c-8.5 0-16.6 2.4-23.6 6.7l-15.2-53.1c-2.5-8.7-10.4-14.7-19.4-14.7H15.3c-8.4 0-15.3 6.8-15.3 15.3v1.6c0 8.4 6.8 15.3 15.3 15.3h57.8l29.5 104.3 40.6 143.9c-23.1 5.8-40.2 26.7-40.2 51.5 0 28.1 21.9 51.2 49.6 53-2.3 6.6-3.4 13.9-2.8 21.4 2 25.4 22.7 45.9 48.1 47.6 30.3 2.1 55.6-22 55.6-51.8 0-6-1-11.7-2.9-17.1h60.8c-2.5 7.1-3.5 15-2.6 23.1 2.8 24.6 23.1 44 47.9 45.8 30.3 2.1 55.7-21.9 55.7-51.8 0-28.9-24-52-52.8-52H156.5c-9.9 0-18.3-7.7-18.7-17.5-.4-10.4 7.9-18.9 18.2-18.9h242.3c20.6 0 38.6-14.1 43.6-34.1l40.4-162.6c3.5-14 .3-28.3-8.7-39.4zm-113.1 307.3c9.4 0 17.1 7.7 17.1 17.1s-7.7 17.1-17.1 17.1-17.1-7.7-17.1-17.1 7.6-17.1 17.1-17.1zm-158.9 0c9.4 0 17.1 7.7 17.1 17.1s-7.7 17.1-17.1 17.1c-9.4 0-17.1-7.7-17.1-17.1 0-9.4 7.6-17.1 17.1-17.1zm-62.8-248.6l-7.8-27.5c-1.2-4.2.5-7.3 1.7-8.8 1.1-1.5 3.7-4 8-4h32.6l8.9 40.4h-43.4v-.1zm9.8 34.8h41.2l8.2 37.4h-38.9l-10.5-37.4zm37.9 107.6c-4.5 0-8.5-3-9.7-7.4l-7.9-28h36.7l7.8 35.3h-26.9v.1zm87.1 0H249l-7.8-35.3h32.3v35.3h.1zm0-70.2h-40l-8.2-37.4h48.2v37.4zm0-72.2h-55.8l-8.9-40.4h64.7v40.4zm62.4 142.4h-27.5v-35.3h34.9l-7.4 35.3zm14.8-70.2h-42.3v-37.4h50.2l-7.9 37.4zm-42.3-72.2v-40.4h66l-8.5 40.4h-57.5zm99.7 134.8c-1.1 4.5-5.1 7.7-9.8 7.7h-26.8l7.5-35.3h36l-6.9 27.6zm15.5-62.6h-37.3l7.9-37.4H433l-9.3 37.4zm24.8-100.1l-6.9 27.8h-40l8.5-40.4h28.6c4.3 0 6.8 2.4 7.9 3.9 1.2 1.5 3 4.6 1.9 8.7z"></path></symbol><symbol id="unlocked" viewBox="0 0 54 54"><path d="M43 20.113V14.5C43 6.505 35.822 0 27 0S11 6.505 11 14.5a1 1 0 1 0 2 0C13 7.607 19.28 2 27 2s14 5.607 14 12.5V20H12.229C8.243 20 5 23.243 5 27.229v19.542C5 50.757 8.243 54 12.229 54h29.542C45.757 54 49 50.757 49 46.771V27.229c0-3.566-2.599-6.53-6-7.116zm4 26.658A5.235 5.235 0 0 1 41.771 52H12.229A5.235 5.235 0 0 1 7 46.771V27.229A5.235 5.235 0 0 1 12.229 22h29.542A5.235 5.235 0 0 1 47 27.229v19.542z"></path><path d="M27 28c-2.206 0-4 1.794-4 4v6c0 2.206 1.794 4 4 4s4-1.794 4-4v-6c0-2.206-1.794-4-4-4zm2 10c0 1.103-.897 2-2 2s-2-.897-2-2v-6c0-1.103.897-2 2-2s2 .897 2 2v6z"></path></symbol></svg>