<svg xmlns="http://www.w3.org/2000/svg" xmlns:xlink="http://www.w3.org/1999/xlink" version="1.1" id="Layer_1" x="0px" y="0px" viewBox="0 0 166 48" style="enable-background:new 0 0 166 48;" xml:space="preserve"><style type="text/css">
	.st0{fill:#5CB75B;}
	.st1{fill:#FFFEFE;}
</style><rect id="XMLID_1_" class="st0" width="166" height="48"></rect><g id="XMLID_3_"><path id="XMLID_4_" class="st1" d="M32.532,19.743l-2.067,3.313c-0.532-0.791-1.091-1.372-1.677-1.746s-1.134-0.561-1.644-0.561   c-0.391,0-0.721,0.108-0.993,0.325c-0.271,0.217-0.407,0.46-0.407,0.731c0,0.26,0.108,0.52,0.325,0.779   c0.206,0.26,0.831,0.763,1.873,1.51c1.66,1.19,2.754,2.211,3.28,3.061c0.526,0.851,0.79,1.772,0.79,2.769   c0,1.311-0.539,2.55-1.616,3.719s-2.639,1.754-4.685,1.754c-1.18,0-2.254-0.238-3.223-0.715s-2.049-1.348-3.239-2.614l2.679-3.117   c1.212,1.602,2.539,2.402,3.978,2.402c0.574,0,1.031-0.138,1.372-0.414c0.341-0.275,0.512-0.603,0.512-0.982   c0-0.303-0.13-0.614-0.39-0.934s-0.969-0.89-2.127-1.713c-1.342-0.952-2.268-1.77-2.776-2.452   c-0.714-0.953-1.072-1.959-1.072-3.021c0-1.483,0.56-2.689,1.681-3.621c1.12-0.931,2.444-1.396,3.97-1.396   c1.071,0,2.089,0.254,3.053,0.763C31.092,18.092,31.893,18.812,32.532,19.743z"></path><path id="XMLID_6_" class="st1" d="M33.183,17.275h4.176l2.441,9.466l5.14-9.466h1.71l2.47,9.466l5.131-9.466h4.604l-9.61,17.667   h-2.089l-2.403-9.336l-5.034,9.336h-2.043L33.183,17.275z"></path><path id="XMLID_8_" class="st1" d="M70.921,29.771l3.816,1.978c-0.855,1.124-1.989,2.013-3.402,2.666   c-1.413,0.654-2.979,0.981-4.701,0.981c-2.695,0-4.82-0.758-6.373-2.273c-1.554-1.516-2.33-3.529-2.33-6.041   c0-2.868,0.971-5.296,2.915-7.282c1.943-1.986,4.289-2.979,7.039-2.979c1.656,0,3.131,0.363,4.425,1.088   c1.293,0.725,2.313,1.781,3.061,3.166c0.747,1.386,1.121,2.891,1.121,4.514c0,0.51-0.054,1.104-0.163,1.787H62.234   c0.043,1.228,0.447,2.206,1.21,2.935c0.763,0.728,1.815,1.092,3.158,1.092C68.226,31.401,69.666,30.858,70.921,29.771z    M72.026,24.192c-0.325-1.082-0.866-1.902-1.624-2.46c-0.758-0.557-1.672-0.836-2.744-0.836c-1.061,0-2.019,0.287-2.874,0.86   c-0.855,0.574-1.505,1.386-1.949,2.436H72.026z"></path><path id="XMLID_11_" class="st1" d="M79.394,17.275h4.343l-0.265,1.931c1.569-1.59,3.327-2.386,5.274-2.386   c0.79,0,1.529,0.135,2.216,0.404c0.688,0.27,1.244,0.614,1.672,1.035c0.427,0.42,0.793,1.008,1.096,1.763   c0.812-1.046,1.764-1.841,2.856-2.386s2.229-0.816,3.408-0.816c1.482,0,2.711,0.496,3.685,1.488   c0.974,0.992,1.461,2.28,1.461,3.862c0,0.596-0.055,1.339-0.163,2.228l-1.457,10.543h-4.326l1.24-9.076   c0.162-1.224,0.243-2.036,0.243-2.437c0-0.833-0.209-1.466-0.627-1.899s-1.007-0.65-1.768-0.65c-0.739,0-1.486,0.263-2.241,0.788   c-0.756,0.525-1.331,1.224-1.728,2.096c-0.397,0.872-0.731,2.37-1.003,4.492l-0.913,6.687H88.07l1.313-9.613   c0.108-0.782,0.163-1.45,0.163-2.004c0-0.771-0.224-1.382-0.669-1.833c-0.446-0.451-1.033-0.677-1.762-0.677   c-0.696,0-1.412,0.242-2.146,0.724c-0.734,0.482-1.305,1.138-1.713,1.967c-0.408,0.829-0.727,2.1-0.955,3.812l-0.995,7.624H76.98   L79.394,17.275z"></path><path id="XMLID_13_" class="st1" d="M119.476,29.771l3.816,1.978c-0.855,1.124-1.989,2.013-3.402,2.666   c-1.412,0.654-2.979,0.981-4.7,0.981c-2.696,0-4.82-0.758-6.374-2.273c-1.553-1.516-2.33-3.529-2.33-6.041   c0-2.868,0.972-5.296,2.915-7.282c1.942-1.986,4.289-2.979,7.039-2.979c1.656,0,3.131,0.363,4.425,1.088   c1.293,0.725,2.313,1.781,3.061,3.166c0.747,1.386,1.12,2.891,1.12,4.514c0,0.51-0.054,1.104-0.162,1.787h-14.094   c0.043,1.228,0.446,2.206,1.209,2.935c0.764,0.728,1.816,1.092,3.158,1.092C116.78,31.401,118.22,30.858,119.476,29.771z    M120.58,24.192c-0.325-1.082-0.866-1.902-1.624-2.46c-0.758-0.557-1.673-0.836-2.744-0.836c-1.061,0-2.019,0.287-2.874,0.86   s-1.505,1.386-1.948,2.436H120.58z"></path><path id="XMLID_16_" class="st1" d="M141.854,10.455h4.341L142.8,34.941h-4.291l0.26-1.897c-0.943,0.876-1.824,1.487-2.643,1.833   s-1.736,0.52-2.755,0.52c-2.342,0-4.203-0.861-5.585-2.582c-1.382-1.722-2.072-3.724-2.072-6.008c0-1.743,0.441-3.402,1.326-4.977   c0.884-1.575,2.071-2.804,3.562-3.686s3.049-1.323,4.676-1.323c1.092,0,2.099,0.25,3.021,0.752c0.922,0.501,1.684,1.231,2.284,2.19   L141.854,10.455z M134.405,31.531c1.065,0,1.995-0.237,2.789-0.713s1.46-1.222,1.998-2.238c0.539-1.016,0.808-2.054,0.808-3.113   c0-1.398-0.405-2.523-1.215-3.375c-0.811-0.852-1.879-1.277-3.206-1.277c-1.544,0-2.854,0.568-3.932,1.705   c-1.076,1.137-1.614,2.604-1.614,4.4c0,1.386,0.407,2.501,1.223,3.345C132.072,31.109,133.121,31.531,134.405,31.531z"></path></g></svg>