<?xml version="1.0" encoding="utf-8"?>
<!-- Generator: Adobe Illustrator 19.0.0, SVG Export Plug-In . SVG Version: 6.00 Build 0)  -->
<svg version="1.1" id="Layer_1" xmlns="http://www.w3.org/2000/svg" xmlns:xlink="http://www.w3.org/1999/xlink" x="0px" y="0px"
	 viewBox="69 161 750 471" style="enable-background:new 69 161 750 471;" xml:space="preserve">
<style type="text/css">
	.st0{fill:#447FAA;}
	.st1{fill:#D9222A;}
	.st2{fill:#EE9F2D;}
	.st3{fill:#FFFFFF;}
</style>
<desc>Created with Sketch.</desc>
<g id="Page-1">
	<g id="mastercard">
		<path id="Rectangle-1" class="st0" d="M109,161h670c22.091,0,40,17.909,40,40v391c0,22.091-17.909,40-40,40H109
			c-22.091,0-40-17.909-40-40V201C69,178.909,86.909,161,109,161z"/>
		<path id="Fill-1" class="st1" d="M503.008,396.5c0,99.142-80.371,179.504-179.508,179.504S144,495.642,144,396.5
			c0-99.133,80.363-179.504,179.5-179.504S503.008,297.367,503.008,396.5"/>
		<path id="Fill-2" class="st2" d="M564.492,216.996c-46.379,0-88.642,17.596-120.5,46.467
			c-6.487,5.883-12.546,12.238-18.125,18.996h36.267c4.958,6.029,9.525,12.371,13.683,19.012h-63.633
			c-3.813,6.104-7.275,12.446-10.342,19.008h84.313c2.879,6.158,5.421,12.496,7.6,19.004h-99.513
			c-2.075,6.192-3.821,12.529-5.217,19.008h109.942c2.637,12.25,4.042,24.967,4.042,38.008c0,19.933-3.254,39.112-9.254,57.021
			h-99.513c2.175,6.512,4.717,12.854,7.596,19.008h84.317c-3.075,6.563-6.529,12.904-10.346,19.012h-63.625
			c4.154,6.629,8.729,12.979,13.683,18.996h36.258c-5.571,6.771-11.633,13.133-18.129,19.012
			c31.858,28.867,74.117,46.454,120.496,46.454C663.629,576.004,744,495.642,744,396.5C744,297.371,663.629,216.996,564.492,216.996
			"/>
		<path id="Fill-4" d="M281.587,416.154c-2.046-0.237-2.946-0.3-4.35-0.3c-11.046,0-16.638,3.787-16.638,11.267
			c0,4.613,2.729,7.546,6.988,7.546C275.525,434.667,281.246,427.108,281.587,416.154z M295.758,449.15h-16.146l0.371-7.675
			c-4.925,6.067-11.496,8.95-20.425,8.95c-10.563,0-17.804-8.25-17.804-20.229c0-18.025,12.596-28.542,34.217-28.542
			c2.208,0,5.042,0.2,7.942,0.571c0.604-2.442,0.763-3.488,0.763-4.8c0-4.908-3.396-6.737-12.5-6.737
			c-9.533-0.108-17.396,2.271-20.625,3.333c0.204-1.229,2.7-16.658,2.7-16.658c9.712-2.846,16.117-3.917,23.325-3.917
			c16.733,0,25.596,7.512,25.579,21.712c0.033,3.804-0.596,8.5-1.579,14.671C299.883,420.558,296.254,443.546,295.758,449.15z"/>
		<polyline id="Fill-5" points="233.6,449.15 214.113,449.15 225.275,379.154 200.35,449.15 187.071,449.15 185.429,379.554 
			173.696,449.15 155.454,449.15 170.692,358.096 198.712,358.096 200.412,409.063 217.504,358.096 248.671,358.096 233.6,449.15 		
			"/>
		<path id="Fill-6" d="M588.575,416.154c-2.038-0.237-2.942-0.3-4.342-0.3c-11.042,0-16.633,3.787-16.633,11.267
			c0,4.613,2.725,7.546,6.983,7.546C582.521,434.667,588.246,427.108,588.575,416.154z M602.758,449.15h-16.146l0.367-7.675
			c-4.925,6.067-11.5,8.95-20.421,8.95c-10.567,0-17.8-8.25-17.8-20.229c0-18.025,12.588-28.542,34.213-28.542
			c2.208,0,5.038,0.2,7.933,0.571c0.604-2.442,0.763-3.488,0.763-4.8c0-4.908-3.392-6.737-12.496-6.737
			c-9.533-0.108-17.388,2.271-20.629,3.333c0.204-1.229,2.708-16.658,2.708-16.658c9.713-2.846,16.112-3.917,23.313-3.917
			c16.742,0,25.604,7.512,25.588,21.712c0.033,3.804-0.596,8.5-1.579,14.671C606.888,420.558,603.25,443.546,602.758,449.15z"/>
		<path id="Fill-7" d="M382.367,448.025c-5.333,1.679-9.492,2.4-14,2.4c-9.962,0-15.4-5.725-15.4-16.267
			c-0.142-3.271,1.433-11.879,2.671-19.737c1.125-6.917,8.45-50.529,8.45-50.529h19.371l-2.263,11.208h11.7l-2.642,17.796h-11.742
			c-2.25,14.083-5.454,31.625-5.492,33.95c0,3.817,2.037,5.483,6.671,5.483c2.221,0,3.942-0.225,5.254-0.7L382.367,448.025"/>
		<path id="Fill-8" d="M441.758,447.425c-6.654,2.033-13.075,3.017-19.879,3c-21.683-0.021-32.988-11.346-32.988-33.033
			c0-25.313,14.379-43.946,33.9-43.946c15.971,0,26.171,10.433,26.171,26.796c0,5.429-0.7,10.729-2.387,18.212H408
			c-1.304,10.742,5.571,15.217,16.837,15.217c6.933,0,13.188-1.429,20.142-4.663L441.758,447.425z M430.871,403.525
			c0.108-1.542,2.054-13.217-9.012-13.217c-6.171,0-10.583,4.704-12.379,13.217H430.871z"/>
		<path id="Fill-9" d="M307.446,398.508c0,9.367,4.542,15.825,14.842,20.675c7.892,3.708,9.112,4.808,9.112,8.171
			c0,4.617-3.479,6.7-11.192,6.7c-5.813,0-11.221-0.908-17.458-2.921c0,0-2.563,16.321-2.679,17.1
			c4.429,0.967,8.379,1.862,20.279,2.192c20.563,0,30.058-7.829,30.058-24.75c0-10.175-3.975-16.146-13.737-20.633
			c-8.171-3.75-9.108-4.588-9.108-8.046c0-4.004,3.237-6.046,9.538-6.046c3.825,0,9.05,0.408,14,1.112l2.775-17.175
			c-5.046-0.8-12.696-1.442-17.15-1.442C314.925,373.446,307.379,384.833,307.446,398.508"/>
		<path id="Fill-10" d="M536.533,375.392c5.412,0,10.458,1.421,17.412,4.921l3.188-19.763c-2.854-1.121-12.904-7.7-21.417-7.7
			c-13.042,0-24.067,6.471-31.821,17.15c-11.308-3.746-15.958,3.825-21.658,11.367l-5.063,1.179c0.383-2.483,0.729-4.95,0.613-7.446
			h-17.896c-2.446,22.917-6.779,46.129-10.171,69.075l-0.883,4.975h19.496c3.254-21.142,5.037-34.679,6.121-43.842l7.342-4.083
			c1.096-4.079,4.529-5.458,11.417-5.292c-0.9,4.833-1.383,9.917-1.383,15.183c0,24.225,13.071,39.308,34.05,39.308
			c5.404,0,10.042-0.712,17.221-2.658l3.429-20.758c-6.458,3.179-11.758,4.675-16.558,4.675c-11.329,0-18.183-8.362-18.183-22.183
			C511.788,389.45,521.983,375.392,536.533,375.392"/>
		<polyline id="Fill-12" class="st3" points="239.208,443.742 219.717,443.742 230.887,373.754 205.962,443.742 192.679,443.742 
			191.038,374.154 179.304,443.742 161.063,443.742 176.3,352.7 204.321,352.7 205.108,409.063 224.012,352.7 254.279,352.7 
			239.208,443.742 		"/>
		<path id="Fill-11" d="M701.521,358.096l-4.321,26.308c-5.329-7.013-11.054-12.088-18.612-12.088
			c-9.833,0-18.783,7.454-24.642,18.425c-8.158-1.692-16.596-4.563-16.596-4.563l-0.004,0.067c0.658-6.133,0.921-9.875,0.862-11.146
			h-17.9c-2.438,22.917-6.771,46.129-10.158,69.075l-0.892,4.975h19.492c2.633-17.096,4.65-31.292,6.133-42.55
			c6.658-6.017,9.992-11.267,16.721-10.917c-2.979,7.204-4.725,15.504-4.725,24.017c0,18.512,9.367,30.725,23.533,30.725
			c7.142,0,12.621-2.462,17.967-8.171l-0.912,6.883H705.9l14.842-91.042H701.521z M677.15,432.038
			c-6.633,0-9.983-4.908-9.983-14.596c0-14.554,6.271-24.875,15.112-24.875c6.696,0,10.321,5.104,10.321,14.508
			C692.6,421.754,686.229,432.038,677.15,432.038z"/>
		<path id="Fill-13" class="st3" d="M287.192,410.758c-2.042-0.238-2.946-0.3-4.346-0.3c-11.046,0-16.633,3.788-16.633,11.267
			c0,4.604,2.729,7.546,6.979,7.546C281.138,429.271,286.858,421.712,287.192,410.758z M301.371,443.742h-16.146l0.367-7.663
			c-4.921,6.054-11.5,8.95-20.421,8.95c-10.567,0-17.804-8.25-17.804-20.229c0-18.033,12.592-28.542,34.217-28.542
			c2.208,0,5.042,0.2,7.938,0.571c0.604-2.442,0.763-3.487,0.763-4.808c0-4.908-3.392-6.729-12.496-6.729
			c-9.537-0.108-17.396,2.271-20.629,3.321c0.204-1.225,2.7-16.637,2.7-16.637c9.708-2.858,16.121-3.929,23.321-3.929
			c16.738,0,25.604,7.517,25.587,21.704c0.029,3.821-0.604,8.513-1.583,14.675C305.496,415.15,301.862,438.15,301.371,443.742z"/>
		<path id="Fill-14" class="st3" d="M562.746,355.15l-3.192,19.767c-6.95-3.496-12-4.921-17.408-4.921
			c-14.55,0-24.75,14.058-24.75,34.108c0,13.821,6.858,22.179,18.183,22.179c4.8,0,10.096-1.492,16.554-4.675l-3.421,20.75
			c-7.183,1.958-11.817,2.671-17.225,2.671c-20.975,0-34.05-15.083-34.05-39.308c0-32.55,18.058-55.3,43.888-55.3
			C549.833,350.421,559.888,354.029,562.746,355.15"/>
		<path id="Fill-15" class="st3" d="M594.188,410.758c-2.042-0.238-2.942-0.3-4.346-0.3c-11.042,0-16.633,3.788-16.633,11.267
			c0,4.604,2.729,7.546,6.983,7.546C588.129,429.271,593.854,421.712,594.188,410.758z M608.367,443.742h-16.15l0.371-7.663
			c-4.925,6.054-11.5,8.95-20.421,8.95c-10.563,0-17.804-8.25-17.804-20.229c0-18.033,12.596-28.542,34.213-28.542
			c2.212,0,5.042,0.2,7.942,0.571c0.6-2.442,0.763-3.487,0.763-4.808c0-4.908-3.392-6.729-12.496-6.729
			c-9.533-0.108-17.396,2.271-20.629,3.321c0.204-1.225,2.704-16.637,2.704-16.637c9.708-2.858,16.117-3.929,23.317-3.929
			c16.742,0,25.604,7.517,25.583,21.704c0.033,3.821-0.596,8.513-1.579,14.675C612.496,415.15,608.854,438.15,608.367,443.742z"/>
		<path id="Fill-16" class="st3" d="M387.975,442.621c-5.337,1.679-9.496,2.408-14,2.408c-9.962,0-15.4-5.725-15.4-16.267
			c-0.138-3.279,1.438-11.879,2.675-19.738c1.121-6.925,8.446-50.533,8.446-50.533h19.367l-2.258,11.212h9.942l-2.646,17.788h-9.975
			c-2.25,14.092-5.462,31.621-5.496,33.95c0,3.829,2.042,5.483,6.671,5.483c2.221,0,3.938-0.217,5.254-0.692L387.975,442.621"/>
		<path id="Fill-17" class="st3" d="M447.367,442.029c-6.65,2.033-13.079,3.012-19.879,3c-21.683-0.021-32.987-11.346-32.987-33.033
			c0-25.321,14.379-43.95,33.9-43.95c15.971,0,26.171,10.429,26.171,26.8c0,5.433-0.7,10.733-2.383,18.213h-38.575
			c-1.304,10.742,5.571,15.221,16.838,15.221c6.929,0,13.188-1.433,20.137-4.675L447.367,442.029z M436.475,398.117
			c0.117-1.538,2.058-13.217-9.013-13.217c-6.167,0-10.579,4.717-12.375,13.217H436.475z"/>
		<path id="Fill-18" class="st3" d="M313.054,393.112c0,9.367,4.542,15.817,14.842,20.675c7.892,3.708,9.112,4.813,9.112,8.171
			c0,4.617-3.483,6.7-11.188,6.7c-5.817,0-11.225-0.908-17.467-2.921c0,0-2.554,16.321-2.671,17.1
			c4.421,0.967,8.375,1.85,20.275,2.192c20.567,0,30.058-7.829,30.058-24.746c0-10.179-3.971-16.15-13.737-20.638
			c-8.167-3.758-9.113-4.583-9.113-8.046c0-4,3.246-6.058,9.542-6.058c3.821,0,9.046,0.421,14.004,1.125l2.771-17.179
			c-5.042-0.8-12.692-1.442-17.146-1.442C320.533,368.046,312.992,379.425,313.054,393.112"/>
		<path id="Fill-19" class="st3" d="M711.508,443.742h-18.438l0.917-6.892c-5.346,5.717-10.825,8.179-17.967,8.179
			c-14.167,0-23.529-12.212-23.529-30.725c0-24.629,14.521-45.392,31.708-45.392c7.558,0,13.279,3.087,18.604,10.096l4.325-26.308
			h19.221L711.508,443.742z M682.763,426.633c9.075,0,15.45-10.283,15.45-24.954c0-9.404-3.629-14.508-10.325-14.508
			c-8.838,0-15.117,10.317-15.117,24.875C672.771,421.733,676.129,426.633,682.763,426.633z"/>
		<path id="Fill-20" class="st3" d="M625.921,369.704c-2.442,22.917-6.775,46.129-10.162,69.063l-0.892,4.975h19.492
			c6.971-45.275,8.658-54.117,19.588-53.008c1.742-9.267,4.983-17.383,7.4-21.479c-8.162-1.7-12.721,2.913-18.688,11.675
			c0.471-3.788,1.333-7.467,1.163-11.225H625.921"/>
		<path id="Fill-21" class="st3" d="M465.5,369.704c-2.446,22.917-6.779,46.129-10.167,69.063l-0.888,4.975h19.5
			c6.962-45.275,8.646-54.117,19.571-53.008c1.75-9.267,4.992-17.383,7.4-21.479c-8.154-1.7-12.717,2.913-18.679,11.675
			c0.471-3.788,1.325-7.467,1.163-11.225H465.5"/>
		<path id="Fill-22" class="st3" d="M720.067,437.946c0-3.212,2.596-5.8,5.796-5.8c3.204,0,5.796,2.587,5.796,5.8
			c0,3.196-2.592,5.796-5.796,5.796C722.662,443.742,720.067,441.142,720.067,437.946z M725.862,442.35
			c2.438,0,4.404-1.975,4.404-4.404c0-2.433-1.967-4.408-4.404-4.408c-2.433,0-4.408,1.975-4.408,4.408
			C721.454,440.375,723.429,442.35,725.862,442.35z M725.079,440.479h-1.188v-5.083h2.154c0.446,0,0.908,0.008,1.296,0.254
			c0.417,0.283,0.654,0.767,0.654,1.275c0,0.575-0.338,1.113-0.888,1.317l0.942,2.237h-1.321l-0.779-2.008h-0.871V440.479z
			 M725.079,437.6h0.654c0.246,0,0.513,0.017,0.729-0.1c0.196-0.125,0.296-0.362,0.296-0.587c0-0.188-0.117-0.413-0.288-0.525
			c-0.204-0.117-0.542-0.083-0.763-0.083h-0.629V437.6z"/>
	</g>
</g>
</svg>
