<?xml version="1.0" encoding="utf-8"?>
<!-- Generator: Adobe Illustrator 19.0.0, SVG Export Plug-In . SVG Version: 6.00 Build 0)  -->
<svg version="1.1" id="Capa_1" xmlns="http://www.w3.org/2000/svg" xmlns:xlink="http://www.w3.org/1999/xlink" x="0px" y="0px"
	 viewBox="-4 5.312 490.688 490.688" style="enable-background:new -4 5.312 490.688 490.688;" xml:space="preserve">
<style type="text/css">
	.st0{fill:#5CB75B;}
	.st1{fill:#FFFFFF;}
</style>
<path class="st0" d="M458.784,214.4c-7.552-5.568-17.067-12.523-18.219-17.067c0.484-8.796,2.996-17.36,7.339-25.024
	c6.656-15.275,13.525-31.104,5.888-44.267s-25.003-15.296-41.707-17.067c-8.658-0.058-17.188-2.094-24.939-5.952
	c-3.864-7.778-5.893-16.339-5.931-25.024c-1.877-16.704-3.819-33.984-17.067-41.707s-29.099-0.96-44.373,5.781
	c-7.672,4.341-16.243,6.852-25.045,7.339c-4.608-1.237-11.541-10.667-17.067-18.219c-9.685-13.056-20.587-27.861-36.331-27.861
	s-26.645,14.805-36.267,27.861c-5.589,7.573-12.523,17.067-17.067,18.24c-8.794-0.53-17.356-3.038-25.045-7.339
	c-15.36-6.763-31.189-13.504-44.309-5.909s-15.317,25.003-17.195,41.813c-0.061,8.655-2.089,17.183-5.931,24.939
	c-7.736,3.803-16.233,5.801-24.853,5.845c-16.725,1.877-34.027,3.819-41.728,17.067S28,156.928,34.741,172.224
	c4.357,7.689,6.869,16.284,7.339,25.109c-1.237,4.608-10.667,11.563-18.219,17.067C10.805,224-4,234.923-4,250.667
	s14.805,26.667,27.883,36.267c7.552,5.568,17.067,12.523,18.219,17.067c-0.484,8.796-2.996,17.36-7.339,25.024
	c-6.656,15.275-13.525,31.104-5.888,44.267s25.003,15.296,41.707,17.067c8.658,0.058,17.188,2.094,24.939,5.952
	c3.864,7.778,5.893,16.339,5.931,25.024c1.877,16.704,3.819,33.984,17.067,41.707s28.971,0.768,44.267-5.888
	c7.749-4.293,16.37-6.773,25.216-7.253c4.608,1.237,11.541,10.667,17.067,18.219c9.621,13.056,20.523,27.861,36.267,27.861
	s26.645-14.805,36.267-27.861c5.589-7.573,12.523-17.067,17.067-18.24c8.8,0.498,17.368,3.008,25.045,7.339
	c15.275,6.656,31.104,13.483,44.245,5.909c13.141-7.573,15.317-25.003,17.195-41.728c0.061-8.655,2.089-17.183,5.931-24.939
	c7.75-3.834,16.271-5.855,24.917-5.909c16.725-1.877,34.027-3.819,41.728-17.067s0.747-28.971-5.888-44.267
	c-4.343-7.728-6.826-16.362-7.253-25.216c1.237-4.608,10.667-11.563,18.219-17.067c13.056-9.621,27.883-20.544,27.883-36.267
	S471.861,224,458.784,214.4z"/>
<g id="XMLID_3_">
	<path id="XMLID_4_" class="st1" d="M343,153.445l-31.435,50.377c-8.088-12.015-16.588-20.867-25.501-26.546
		c-8.913-5.68-17.244-8.52-24.999-8.52c-5.942,0-10.974,1.648-15.098,4.939c-4.129,3.295-6.189,6.999-6.189,11.112
		c0,3.951,1.648,7.902,4.951,11.853c3.133,3.951,12.625,11.606,28.472,22.966c25.253,18.112,41.884,33.627,49.891,46.549
		c8.002,12.926,12.007,26.959,12.007,42.104c0,19.921-8.192,38.77-24.571,56.55c-16.383,17.78-40.128,26.67-71.243,26.67
		c-17.946,0-34.287-3.623-49.018-10.866c-14.736-7.242-31.157-20.496-49.265-39.758l40.746-47.413
		c18.436,24.366,38.604,36.548,60.501,36.548c8.724,0,15.681-2.099,20.867-6.297c5.186-4.198,7.779-9.175,7.779-14.94
		c0-4.607-1.976-9.341-5.927-14.199c-3.951-4.854-14.736-13.539-32.35-26.053c-20.415-14.485-34.491-26.917-42.227-37.289
		c-10.866-14.485-16.298-29.795-16.298-45.932c0-22.553,8.52-40.908,25.559-55.068c17.039-14.157,37.165-21.237,60.378-21.237
		c16.298,0,31.771,3.87,46.425,11.606C321.103,128.342,333.284,139.289,343,153.445z"/>
</g>
</svg>
