<?xml version="1.0" encoding="utf-8"?>
<!-- Generator: Adobe Illustrator 19.0.0, SVG Export Plug-In . SVG Version: 6.00 Build 0)  -->
<svg version="1.1" id="Layer_1" xmlns="http://www.w3.org/2000/svg" xmlns:xlink="http://www.w3.org/1999/xlink" x="0px" y="0px"
	 viewBox="69 161 750 471" style="enable-background:new 69 161 750 471;" xml:space="preserve">
<style type="text/css">
	.st0{fill:#FFFFFF;}
	.st1{fill:#002C50;}
	.st2{fill:#00ACC8;}
</style>
<desc>Created with Sketch.</desc>
<g id="Page-1">
	<g id="visa">
		<path id="Rectangle-1" class="st0" d="M109,161h670c22.091,0,40,17.909,40,40v391c0,22.091-17.909,40-40,40H109
			c-22.091,0-40-17.909-40-40V201C69,178.909,86.909,161,109,161z"/>
		<path class="st1" d="M217.988,342.072H172.55c-16.442,0-18.34-8.215-18.34-14.389c0-12.836,6.694-18.072,23.105-18.072h88.032
			v-35.486h-93.019c-41.297,0-60.525,16.856-60.525,53.077c0,34.033,18.291,49.883,57.566,49.883h40.458
			c15.917,0,21.029,3.779,21.029,15.575c0,9.785-3.721,15.095-23.316,15.095h-89.145v35.466h94.597
			c41.146,0,60.303-16.518,60.303-51.952c0-34.955-16.025-49.209-55.307-49.209 M411.361,274.126L363.35,389.951l-46.922-115.825
			h-46.039l73.971,169.117h39.765l70.885-169.117 M526.026,308.933h59.609v-34.807h-60.304c-54.627,0-80.062,27.8-80.062,87.491
			c0,30.821,8.578,52.608,26.217,66.594c17.366,13.88,34.252,15.023,52.936,15.023h61.213v-34.803h-59.609
			c-24.661,0-34.552-9.114-35.534-33.374h95.143v-34.786H490.91c2.121-21.356,13.35-31.341,35.116-31.341 M664.544,274.126
			l-71.848,169.109h43.509l14.565-38.745h66.406l14.993,38.745h45.354l-72.357-169.109 M664.359,369.02l19.199-50.27l19.939,50.27
			H664.359z"/>
		<path class="st2" d="M113.12,474.805v44.09h329.323v-44.09H113.12z"/>
		<path class="st1" d="M491.264,484.33c-1.816,2.028-2.831,4.648-2.855,7.37l25.938-0.063v7.454h-25.992
			c-0.008,1.468,0.171,2.931,0.534,4.354c0.368,1.437,1.107,2.753,2.141,3.817c0.865,1.03,2.056,1.734,3.375,1.996
			c1.318,0.264,2.659,0.396,4.003,0.392h0.558l15.388-0.058v7.455h-15.821c-2.445,0.009-4.885-0.21-7.289-0.655
			c-5.435-1.118-9.905-4.966-11.82-10.173c-0.984-2.77-1.527-5.678-1.607-8.617c-0.05-0.614-0.059-1.23-0.029-1.845
			c0.021-0.596,0.05-1.198,0.086-1.799c0.456-6.749,2.37-11.715,5.74-14.899c3.36-3.182,8.429-4.77,15.164-4.77l15.575-0.065v7.452
			h-15.386C496.146,481.492,493.372,482.449,491.264,484.33 M531.9,474.222v20.572l17.565-20.572h11.221l-17.871,20.937
			l18.056,21.887H548.9l-17.002-21.298v21.298h-9.369v-42.823 M562.544,486.149c0.927-2.905,2.557-5.536,4.744-7.661
			c2.322-2.097,5.156-3.546,8.215-4.202c1.271-0.29,2.556-0.511,3.851-0.662c1.319-0.159,2.646-0.24,3.974-0.243
			c1.425-0.037,2.851,0.024,4.268,0.181c1.407,0.151,2.801,0.411,4.167,0.779c3.029,0.647,5.832,2.088,8.121,4.174
			c2.19,2.118,3.794,4.767,4.657,7.688c0.425,1.489,0.746,3.005,0.96,4.539c0.224,1.58,0.339,3.174,0.342,4.77
			c0,1.673-0.103,3.344-0.31,5.004c-0.201,1.577-0.534,3.134-0.996,4.655c-0.839,2.973-2.469,5.662-4.715,7.782
			c-2.36,2.077-5.229,3.489-8.314,4.09c-1.346,0.321-2.712,0.55-4.089,0.685c-1.426,0.141-2.858,0.211-4.291,0.209
			c-1.287-0.002-2.573-0.081-3.851-0.236c-1.277-0.163-2.538-0.385-3.779-0.659c-3.064-0.609-5.911-2.02-8.249-4.09
			c-2.242-2.119-3.869-4.806-4.707-7.775c-0.431-1.483-0.751-2.996-0.958-4.527c-0.227-1.64-0.341-3.294-0.342-4.95
			c-0.003-1.666,0.101-3.33,0.31-4.982c0.181-1.532,0.511-3.042,0.988-4.51 M572.224,489.19c-0.285,1.068-0.495,2.154-0.626,3.252
			c-0.121,1.08-0.182,2.165-0.181,3.252c0,1.105,0.073,2.208,0.217,3.303c0.138,1.074,0.335,2.14,0.591,3.192
			c0.401,1.735,1.174,3.362,2.264,4.77c1.142,1.419,2.685,2.462,4.428,2.992c0.731,0.239,1.481,0.416,2.242,0.531
			c1.561,0.237,3.149,0.237,4.71,0c0.755-0.114,1.5-0.291,2.225-0.531c1.753-0.537,3.31-1.578,4.477-2.992
			c1.095-1.4,1.856-3.031,2.225-4.77c0.252-1.053,0.45-2.118,0.592-3.192c0.288-2.178,0.288-4.384,0-6.562
			c-0.144-1.072-0.341-2.135-0.592-3.187c-0.377-1.747-1.137-3.389-2.225-4.808c-1.156-1.418-2.719-2.448-4.477-2.952
			c-0.724-0.242-1.469-0.417-2.225-0.524c-1.56-0.249-3.15-0.249-4.71,0c-0.762,0.107-1.512,0.282-2.242,0.524
			c-1.734,0.53-3.267,1.571-4.399,2.988c-1.069,1.425-1.848,3.047-2.293,4.772v-0.065L572.224,489.19z M623.964,474.227
			l18.236,30.774l-0.433-30.774h9.555v42.823h-10.868l-19.169-32.387l0.44,32.387h-9.613v-42.828 M658.767,486.149
			c0.925-2.906,2.555-5.538,4.744-7.661c2.322-2.097,5.156-3.546,8.215-4.202c1.268-0.29,2.551-0.511,3.842-0.662
			c1.318-0.158,2.645-0.24,3.972-0.243c1.429-0.037,2.858,0.024,4.279,0.181c1.405,0.153,2.796,0.413,4.161,0.779
			c3.029,0.647,5.832,2.087,8.121,4.174c2.188,2.118,3.789,4.767,4.65,7.688c0.43,1.488,0.753,3.005,0.967,4.539
			c0.224,1.58,0.339,3.174,0.342,4.77c0,1.673-0.103,3.344-0.31,5.004c-0.202,1.577-0.538,3.135-1.003,4.655
			c-0.836,2.974-2.466,5.664-4.715,7.782c-2.358,2.079-5.228,3.492-8.314,4.09c-1.346,0.321-2.712,0.55-4.089,0.685
			c-1.422,0.141-2.85,0.211-4.279,0.209c-1.287-0.001-2.572-0.08-3.849-0.236c-1.285-0.163-2.547-0.385-3.786-0.659
			c-3.064-0.607-5.911-2.019-8.249-4.09c-2.242-2.118-3.866-4.806-4.7-7.775c-0.434-1.482-0.754-2.996-0.958-4.527
			c-0.23-1.64-0.345-3.294-0.342-4.95c-0.006-1.666,0.098-3.33,0.31-4.982c0.177-1.533,0.508-3.043,0.987-4.51 M668.441,489.19
			c-0.286,1.067-0.494,2.154-0.62,3.252c-0.117,1.08-0.178,2.165-0.181,3.252c0.001,1.104,0.072,2.208,0.211,3.303
			c0.142,1.073,0.339,2.139,0.59,3.192c0.405,1.734,1.177,3.36,2.264,4.77c1.146,1.418,2.691,2.46,4.435,2.992
			c0.726,0.237,1.47,0.415,2.225,0.531c0.781,0.113,1.569,0.17,2.358,0.171c0.792,0,1.582-0.057,2.365-0.171
			c0.758-0.115,1.506-0.292,2.235-0.531c1.748-0.539,3.3-1.579,4.464-2.992c1.098-1.399,1.863-3.031,2.235-4.77
			c0.25-1.053,0.444-2.119,0.584-3.192c0.151-1.095,0.226-2.198,0.224-3.303c0-1.088-0.075-2.174-0.224-3.252
			c-0.141-1.071-0.335-2.135-0.584-3.187c-0.38-1.748-1.144-3.39-2.235-4.808c-1.152-1.416-2.71-2.446-4.464-2.952
			c-0.728-0.241-1.476-0.416-2.235-0.524c-0.782-0.123-1.573-0.185-2.365-0.187c-0.79,0.003-1.578,0.065-2.358,0.187
			c-0.756,0.109-1.5,0.284-2.225,0.524c-1.736,0.53-3.271,1.571-4.405,2.988c-1.07,1.425-1.849,3.046-2.293,4.772V489.19
			L668.441,489.19z M722.104,474.227l11.357,32.861l11.344-32.861h13.716v42.823h-9.187l0.756-33.34l-11.422,33.34h-9.927
			l-11.784-33.701l0.931,33.701h-9.548v-42.828 M767.76,474.222v42.823h9.814v-42.823H767.76z"/>
	</g>
</g>
</svg>
